<mxfile host="65bd71144e">
    <diagram id="8jpRbvkSF91gQkNju6mZ" name="Page-1">
        <mxGraphModel dx="2321" dy="850" grid="1" gridSize="10" guides="1" tooltips="1" connect="1" arrows="1" fold="1" page="1" pageScale="1" pageWidth="827" pageHeight="1169" math="0" shadow="0">
            <root>
                <mxCell id="0"/>
                <mxCell id="1" parent="0"/>
                <mxCell id="105" value="&lt;font style=&quot;font-size: 18px&quot;&gt;Bill&lt;/font&gt;" style="whiteSpace=wrap;html=1;align=center;" vertex="1" parent="1">
                    <mxGeometry x="170" y="470" width="100" height="40" as="geometry"/>
                </mxCell>
                <mxCell id="106" value="&lt;font style=&quot;font-size: 18px&quot;&gt;Booth&lt;/font&gt;" style="whiteSpace=wrap;html=1;align=center;" vertex="1" parent="1">
                    <mxGeometry x="120" y="750" width="100" height="40" as="geometry"/>
                </mxCell>
                <mxCell id="107" value="&lt;font style=&quot;font-size: 18px&quot;&gt;Restaurant&lt;/font&gt;" style="whiteSpace=wrap;html=1;align=center;" vertex="1" parent="1">
                    <mxGeometry x="815" y="190" width="100" height="40" as="geometry"/>
                </mxCell>
                <mxCell id="108" value="&lt;font style=&quot;font-size: 18px&quot;&gt;Dessert&lt;/font&gt;" style="whiteSpace=wrap;html=1;align=center;" vertex="1" parent="1">
                    <mxGeometry x="30" y="170" width="100" height="40" as="geometry"/>
                </mxCell>
                <mxCell id="109" value="contains" style="shape=rhombus;perimeter=rhombusPerimeter;whiteSpace=wrap;html=1;align=center;fontSize=18;" vertex="1" parent="1">
                    <mxGeometry x="20" y="370" width="120" height="60" as="geometry"/>
                </mxCell>
                <mxCell id="110" value="process" style="shape=rhombus;perimeter=rhombusPerimeter;whiteSpace=wrap;html=1;align=center;fontSize=18;" vertex="1" parent="1">
                    <mxGeometry x="370" y="460" width="120" height="60" as="geometry"/>
                </mxCell>
                <mxCell id="111" value="generate" style="shape=rhombus;perimeter=rhombusPerimeter;whiteSpace=wrap;html=1;align=center;fontSize=18;" vertex="1" parent="1">
                    <mxGeometry x="-100" y="585" width="120" height="60" as="geometry"/>
                </mxCell>
                <mxCell id="112" value="contains" style="shape=rhombus;perimeter=rhombusPerimeter;whiteSpace=wrap;html=1;align=center;fontSize=18;" vertex="1" parent="1">
                    <mxGeometry x="695" y="720" width="120" height="60" as="geometry"/>
                </mxCell>
                <mxCell id="113" value="&lt;font style=&quot;font-size: 14px&quot;&gt;BillAmount&lt;/font&gt;" style="ellipse;whiteSpace=wrap;html=1;align=center;fontSize=18;" vertex="1" parent="1">
                    <mxGeometry x="170" y="370" width="80" height="40" as="geometry"/>
                </mxCell>
                <mxCell id="114" value="&lt;font style=&quot;font-size: 14px&quot;&gt;&lt;u&gt;&lt;b&gt;Bill_ID&lt;/b&gt;&lt;/u&gt;&lt;/font&gt;" style="ellipse;whiteSpace=wrap;html=1;align=center;fontSize=18;" vertex="1" parent="1">
                    <mxGeometry x="270" y="380" width="80" height="40" as="geometry"/>
                </mxCell>
                <mxCell id="115" value="&lt;font style=&quot;font-size: 14px&quot;&gt;MaxCapacity&lt;/font&gt;" style="ellipse;whiteSpace=wrap;html=1;align=center;fontSize=18;" vertex="1" parent="1">
                    <mxGeometry x="870" y="90" width="90" height="40" as="geometry"/>
                </mxCell>
                <mxCell id="116" value="&lt;font style=&quot;font-size: 14px&quot;&gt;&lt;u&gt;&lt;b&gt;RestaurandID&lt;/b&gt;&lt;/u&gt;&lt;/font&gt;" style="ellipse;whiteSpace=wrap;html=1;align=center;fontSize=18;" vertex="1" parent="1">
                    <mxGeometry x="780" y="120" width="100" height="40" as="geometry"/>
                </mxCell>
                <mxCell id="117" value="&lt;font style=&quot;font-size: 14px&quot;&gt;GranuityAmount&lt;/font&gt;" style="ellipse;whiteSpace=wrap;html=1;align=center;fontSize=18;" vertex="1" parent="1">
                    <mxGeometry x="170" y="640" width="110" height="40" as="geometry"/>
                </mxCell>
                <mxCell id="118" value="&lt;font style=&quot;font-size: 14px&quot;&gt;Bill_Date_time&lt;/font&gt;" style="ellipse;whiteSpace=wrap;html=1;align=center;fontSize=18;" vertex="1" parent="1">
                    <mxGeometry x="320" y="605" width="100" height="40" as="geometry"/>
                </mxCell>
                <mxCell id="119" value="&lt;font style=&quot;font-size: 14px&quot;&gt;DrinkName&lt;/font&gt;" style="ellipse;whiteSpace=wrap;html=1;align=center;fontSize=18;" vertex="1" parent="1">
                    <mxGeometry x="-150" y="130" width="100" height="40" as="geometry"/>
                </mxCell>
                <mxCell id="120" value="&lt;font style=&quot;font-size: 14px&quot;&gt;DessertPrice&lt;/font&gt;" style="ellipse;whiteSpace=wrap;html=1;align=center;fontSize=18;" vertex="1" parent="1">
                    <mxGeometry x="-150" y="80" width="100" height="40" as="geometry"/>
                </mxCell>
                <mxCell id="121" value="&lt;font style=&quot;font-size: 14px&quot;&gt;DessertDescription&lt;/font&gt;" style="ellipse;whiteSpace=wrap;html=1;align=center;fontSize=18;" vertex="1" parent="1">
                    <mxGeometry x="-90" y="40" width="140" height="40" as="geometry"/>
                </mxCell>
                <mxCell id="122" value="&lt;u&gt;&lt;font style=&quot;font-size: 14px&quot;&gt;&lt;b&gt;DessertCode&lt;/b&gt;&lt;/font&gt;&lt;/u&gt;" style="ellipse;whiteSpace=wrap;html=1;align=center;fontSize=18;" vertex="1" parent="1">
                    <mxGeometry x="100" y="100" width="90" height="40" as="geometry"/>
                </mxCell>
                <mxCell id="123" value="&lt;font style=&quot;font-size: 14px&quot;&gt;DessertName&lt;/font&gt;" style="ellipse;whiteSpace=wrap;html=1;align=center;fontSize=18;" vertex="1" parent="1">
                    <mxGeometry x="10" y="80" width="90" height="40" as="geometry"/>
                </mxCell>
                <mxCell id="124" value="" style="endArrow=none;html=1;rounded=0;fontSize=18;entryX=1;entryY=0.5;entryDx=0;entryDy=0;exitX=0;exitY=0.25;exitDx=0;exitDy=0;" edge="1" parent="1" source="108" target="120">
                    <mxGeometry relative="1" as="geometry">
                        <mxPoint x="170" y="370" as="sourcePoint"/>
                        <mxPoint x="330" y="370" as="targetPoint"/>
                    </mxGeometry>
                </mxCell>
                <mxCell id="125" value="" style="endArrow=none;html=1;rounded=0;fontSize=18;entryX=0.5;entryY=1;entryDx=0;entryDy=0;exitX=0.25;exitY=0;exitDx=0;exitDy=0;" edge="1" parent="1" source="108" target="121">
                    <mxGeometry relative="1" as="geometry">
                        <mxPoint x="170" y="370" as="sourcePoint"/>
                        <mxPoint x="330" y="370" as="targetPoint"/>
                    </mxGeometry>
                </mxCell>
                <mxCell id="126" value="" style="endArrow=none;html=1;rounded=0;fontSize=18;entryX=0.5;entryY=1;entryDx=0;entryDy=0;exitX=0.5;exitY=0;exitDx=0;exitDy=0;" edge="1" parent="1" source="108" target="123">
                    <mxGeometry relative="1" as="geometry">
                        <mxPoint x="170" y="370" as="sourcePoint"/>
                        <mxPoint x="330" y="370" as="targetPoint"/>
                    </mxGeometry>
                </mxCell>
                <mxCell id="127" value="" style="endArrow=none;html=1;rounded=0;fontSize=18;entryX=0.5;entryY=1;entryDx=0;entryDy=0;exitX=0.75;exitY=0;exitDx=0;exitDy=0;" edge="1" parent="1" source="108" target="122">
                    <mxGeometry relative="1" as="geometry">
                        <mxPoint x="170" y="370" as="sourcePoint"/>
                        <mxPoint x="330" y="370" as="targetPoint"/>
                    </mxGeometry>
                </mxCell>
                <mxCell id="128" value="&lt;font style=&quot;font-size: 14px&quot;&gt;DessertCategoryName&lt;/font&gt;" style="ellipse;whiteSpace=wrap;html=1;align=center;fontSize=18;" vertex="1" parent="1">
                    <mxGeometry x="-230" y="460" width="150" height="40" as="geometry"/>
                </mxCell>
                <mxCell id="129" value="&lt;font style=&quot;font-size: 14px&quot;&gt;ToppingName&lt;/font&gt;" style="ellipse;whiteSpace=wrap;html=1;align=center;fontSize=18;" vertex="1" parent="1">
                    <mxGeometry x="-110" y="170" width="100" height="40" as="geometry"/>
                </mxCell>
                <mxCell id="130" value="" style="endArrow=none;html=1;rounded=0;fontSize=18;entryX=1;entryY=0.5;entryDx=0;entryDy=0;exitX=0;exitY=0.5;exitDx=0;exitDy=0;" edge="1" parent="1" source="108" target="129">
                    <mxGeometry relative="1" as="geometry">
                        <mxPoint x="30" y="380" as="sourcePoint"/>
                        <mxPoint x="-50" y="300" as="targetPoint"/>
                    </mxGeometry>
                </mxCell>
                <mxCell id="131" value="" style="endArrow=none;html=1;rounded=0;fontSize=18;exitX=0.5;exitY=1;exitDx=0;exitDy=0;" edge="1" parent="1" source="208" target="128">
                    <mxGeometry relative="1" as="geometry">
                        <mxPoint x="-10" y="390" as="sourcePoint"/>
                        <mxPoint x="-90" y="320" as="targetPoint"/>
                    </mxGeometry>
                </mxCell>
                <mxCell id="132" value="" style="endArrow=none;html=1;rounded=0;fontSize=18;entryX=1;entryY=0.5;entryDx=0;entryDy=0;" edge="1" parent="1" target="119">
                    <mxGeometry relative="1" as="geometry">
                        <mxPoint x="30" y="180" as="sourcePoint"/>
                        <mxPoint x="-10" y="140" as="targetPoint"/>
                    </mxGeometry>
                </mxCell>
                <mxCell id="133" value="&lt;font style=&quot;font-size: 14px&quot;&gt;RegionName&lt;/font&gt;" style="ellipse;whiteSpace=wrap;html=1;align=center;fontSize=18;" vertex="1" parent="1">
                    <mxGeometry x="905" y="520" width="90" height="40" as="geometry"/>
                </mxCell>
                <mxCell id="134" value="" style="endArrow=none;html=1;rounded=0;fontSize=18;exitX=1;exitY=1;exitDx=0;exitDy=0;entryX=0;entryY=0;entryDx=0;entryDy=0;" edge="1" parent="1" source="197" target="198">
                    <mxGeometry relative="1" as="geometry">
                        <mxPoint x="1200" y="370" as="sourcePoint"/>
                        <mxPoint x="1130" y="476" as="targetPoint"/>
                    </mxGeometry>
                </mxCell>
                <mxCell id="135" value="" style="endArrow=none;html=1;rounded=0;fontSize=18;entryX=0.408;entryY=-0.059;entryDx=0;entryDy=0;exitX=0.5;exitY=1;exitDx=0;exitDy=0;entryPerimeter=0;" edge="1" parent="1" source="197" target="133">
                    <mxGeometry relative="1" as="geometry">
                        <mxPoint x="1140" y="380" as="sourcePoint"/>
                        <mxPoint x="675" y="180" as="targetPoint"/>
                    </mxGeometry>
                </mxCell>
                <mxCell id="136" value="" style="endArrow=none;html=1;rounded=0;fontSize=14;exitX=0.5;exitY=1;exitDx=0;exitDy=0;entryX=0.5;entryY=0;entryDx=0;entryDy=0;" edge="1" parent="1" source="115" target="107">
                    <mxGeometry relative="1" as="geometry">
                        <mxPoint x="780" y="250" as="sourcePoint"/>
                        <mxPoint x="870" y="180" as="targetPoint"/>
                    </mxGeometry>
                </mxCell>
                <mxCell id="137" value="" style="endArrow=none;html=1;rounded=0;fontSize=14;entryX=0.5;entryY=1;entryDx=0;entryDy=0;exitX=0.25;exitY=0;exitDx=0;exitDy=0;" edge="1" parent="1" source="107">
                    <mxGeometry relative="1" as="geometry">
                        <mxPoint x="525" y="430" as="sourcePoint"/>
                        <mxPoint x="835" y="150" as="targetPoint"/>
                    </mxGeometry>
                </mxCell>
                <mxCell id="138" value="" style="endArrow=none;html=1;rounded=0;fontSize=14;exitX=0;exitY=0.25;exitDx=0;exitDy=0;entryX=1;entryY=0.5;entryDx=0;entryDy=0;" edge="1" parent="1" source="107" target="178">
                    <mxGeometry relative="1" as="geometry">
                        <mxPoint x="350" y="405" as="sourcePoint"/>
                        <mxPoint x="680" y="210" as="targetPoint"/>
                    </mxGeometry>
                </mxCell>
                <mxCell id="139" value="1" style="edgeLabel;html=1;align=center;verticalAlign=middle;resizable=0;points=[];" vertex="1" connectable="0" parent="138">
                    <mxGeometry x="0.5873" y="-2" relative="1" as="geometry">
                        <mxPoint y="-10" as="offset"/>
                    </mxGeometry>
                </mxCell>
                <mxCell id="140" value="" style="endArrow=none;html=1;rounded=0;fontSize=14;exitX=1;exitY=0.5;exitDx=0;exitDy=0;entryX=0;entryY=0.5;entryDx=0;entryDy=0;" edge="1" parent="1" source="108" target="179">
                    <mxGeometry relative="1" as="geometry">
                        <mxPoint x="170" y="370" as="sourcePoint"/>
                        <mxPoint x="200" y="190" as="targetPoint"/>
                    </mxGeometry>
                </mxCell>
                <mxCell id="141" value="1" style="edgeLabel;html=1;align=center;verticalAlign=middle;resizable=0;points=[];" vertex="1" connectable="0" parent="140">
                    <mxGeometry x="0.5812" y="1" relative="1" as="geometry">
                        <mxPoint x="-1" y="-9" as="offset"/>
                    </mxGeometry>
                </mxCell>
                <mxCell id="142" value="" style="endArrow=none;html=1;rounded=0;fontSize=14;entryX=1;entryY=0.5;entryDx=0;entryDy=0;exitX=0.25;exitY=1;exitDx=0;exitDy=0;" edge="1" parent="1" source="107" target="110">
                    <mxGeometry relative="1" as="geometry">
                        <mxPoint x="170" y="370" as="sourcePoint"/>
                        <mxPoint x="330" y="370" as="targetPoint"/>
                    </mxGeometry>
                </mxCell>
                <mxCell id="143" value="1" style="resizable=0;html=1;align=right;verticalAlign=bottom;fontSize=14;" connectable="0" vertex="1" parent="142">
                    <mxGeometry x="1" relative="1" as="geometry">
                        <mxPoint x="-10" y="-10" as="offset"/>
                    </mxGeometry>
                </mxCell>
                <mxCell id="144" value="" style="endArrow=none;html=1;rounded=0;fontSize=14;entryX=0;entryY=0.5;entryDx=0;entryDy=0;exitX=1;exitY=0.5;exitDx=0;exitDy=0;" edge="1" parent="1" source="105" target="110">
                    <mxGeometry relative="1" as="geometry">
                        <mxPoint x="170" y="370" as="sourcePoint"/>
                        <mxPoint x="330" y="370" as="targetPoint"/>
                    </mxGeometry>
                </mxCell>
                <mxCell id="145" value="N" style="resizable=0;html=1;align=right;verticalAlign=bottom;fontSize=14;" connectable="0" vertex="1" parent="144">
                    <mxGeometry x="1" relative="1" as="geometry"/>
                </mxCell>
                <mxCell id="146" value="" style="endArrow=none;html=1;rounded=0;fontSize=14;entryX=0.5;entryY=0;entryDx=0;entryDy=0;exitX=0.5;exitY=1;exitDx=0;exitDy=0;" edge="1" parent="1" source="108" target="109">
                    <mxGeometry relative="1" as="geometry">
                        <mxPoint x="495" y="180" as="sourcePoint"/>
                        <mxPoint x="490" y="350" as="targetPoint"/>
                    </mxGeometry>
                </mxCell>
                <mxCell id="147" value="1" style="resizable=0;html=1;align=right;verticalAlign=bottom;fontSize=14;" connectable="0" vertex="1" parent="146">
                    <mxGeometry x="1" relative="1" as="geometry">
                        <mxPoint x="20" as="offset"/>
                    </mxGeometry>
                </mxCell>
                <mxCell id="148" value="" style="endArrow=none;html=1;rounded=0;fontSize=14;entryX=0.5;entryY=1;entryDx=0;entryDy=0;exitX=0;exitY=0.5;exitDx=0;exitDy=0;" edge="1" parent="1" source="105" target="109">
                    <mxGeometry relative="1" as="geometry">
                        <mxPoint x="270" y="350" as="sourcePoint"/>
                        <mxPoint x="370" y="350" as="targetPoint"/>
                    </mxGeometry>
                </mxCell>
                <mxCell id="149" value="M" style="resizable=0;html=1;align=right;verticalAlign=bottom;fontSize=14;" connectable="0" vertex="1" parent="148">
                    <mxGeometry x="1" relative="1" as="geometry">
                        <mxPoint x="40" y="10" as="offset"/>
                    </mxGeometry>
                </mxCell>
                <mxCell id="150" value="" style="endArrow=none;html=1;rounded=0;fontSize=14;entryX=0.5;entryY=1;entryDx=0;entryDy=0;" edge="1" parent="1" source="105" target="113">
                    <mxGeometry relative="1" as="geometry">
                        <mxPoint x="170" y="530" as="sourcePoint"/>
                        <mxPoint x="330" y="530" as="targetPoint"/>
                    </mxGeometry>
                </mxCell>
                <mxCell id="151" value="" style="endArrow=none;html=1;rounded=0;fontSize=14;entryX=0.5;entryY=1;entryDx=0;entryDy=0;exitX=0.75;exitY=0;exitDx=0;exitDy=0;" edge="1" parent="1" source="105" target="114">
                    <mxGeometry relative="1" as="geometry">
                        <mxPoint x="170" y="530" as="sourcePoint"/>
                        <mxPoint x="330" y="530" as="targetPoint"/>
                    </mxGeometry>
                </mxCell>
                <mxCell id="152" value="" style="endArrow=none;html=1;rounded=0;fontSize=14;entryX=0.5;entryY=1;entryDx=0;entryDy=0;exitX=0.5;exitY=0;exitDx=0;exitDy=0;" edge="1" parent="1" source="117" target="105">
                    <mxGeometry relative="1" as="geometry">
                        <mxPoint x="170" y="530" as="sourcePoint"/>
                        <mxPoint x="330" y="530" as="targetPoint"/>
                    </mxGeometry>
                </mxCell>
                <mxCell id="153" value="" style="endArrow=none;html=1;rounded=0;fontSize=14;entryX=0.5;entryY=0;entryDx=0;entryDy=0;exitX=0.75;exitY=1;exitDx=0;exitDy=0;" edge="1" parent="1" source="105" target="118">
                    <mxGeometry relative="1" as="geometry">
                        <mxPoint x="170" y="530" as="sourcePoint"/>
                        <mxPoint x="330" y="530" as="targetPoint"/>
                    </mxGeometry>
                </mxCell>
                <mxCell id="154" value="" style="endArrow=none;html=1;rounded=0;fontSize=14;exitX=0.5;exitY=1;exitDx=0;exitDy=0;" edge="1" parent="1" source="107" target="112">
                    <mxGeometry relative="1" as="geometry">
                        <mxPoint x="500" y="170" as="sourcePoint"/>
                        <mxPoint x="490" y="350" as="targetPoint"/>
                        <Array as="points"/>
                    </mxGeometry>
                </mxCell>
                <mxCell id="155" value="1" style="resizable=0;html=1;align=right;verticalAlign=bottom;fontSize=14;" connectable="0" vertex="1" parent="154">
                    <mxGeometry x="1" relative="1" as="geometry">
                        <mxPoint x="-10" y="-10" as="offset"/>
                    </mxGeometry>
                </mxCell>
                <mxCell id="156" value="" style="endArrow=none;html=1;rounded=0;fontSize=14;entryX=0.5;entryY=1;entryDx=0;entryDy=0;exitX=1;exitY=0.5;exitDx=0;exitDy=0;" edge="1" parent="1" source="106" target="112">
                    <mxGeometry relative="1" as="geometry">
                        <mxPoint x="264" y="380" as="sourcePoint"/>
                        <mxPoint x="370" y="350" as="targetPoint"/>
                        <Array as="points"/>
                    </mxGeometry>
                </mxCell>
                <mxCell id="157" value="N" style="resizable=0;html=1;align=right;verticalAlign=bottom;fontSize=14;" connectable="0" vertex="1" parent="156">
                    <mxGeometry x="1" relative="1" as="geometry">
                        <mxPoint x="-45" as="offset"/>
                    </mxGeometry>
                </mxCell>
                <mxCell id="158" value="" style="endArrow=none;html=1;rounded=0;fontSize=14;exitX=0;exitY=0.75;exitDx=0;exitDy=0;entryX=0.5;entryY=0;entryDx=0;entryDy=0;" edge="1" parent="1" source="105" target="111">
                    <mxGeometry relative="1" as="geometry">
                        <mxPoint x="510" y="180" as="sourcePoint"/>
                        <mxPoint x="528.3333333333333" y="500.83333333333326" as="targetPoint"/>
                        <Array as="points"/>
                    </mxGeometry>
                </mxCell>
                <mxCell id="159" value="M" style="resizable=0;html=1;align=right;verticalAlign=bottom;fontSize=14;" connectable="0" vertex="1" parent="158">
                    <mxGeometry x="1" relative="1" as="geometry">
                        <mxPoint x="10" y="-10" as="offset"/>
                    </mxGeometry>
                </mxCell>
                <mxCell id="160" value="" style="endArrow=none;html=1;rounded=0;fontSize=14;entryX=0.5;entryY=1;entryDx=0;entryDy=0;exitX=0.5;exitY=0;exitDx=0;exitDy=0;" edge="1" parent="1" source="106" target="111">
                    <mxGeometry relative="1" as="geometry">
                        <mxPoint x="520" y="190" as="sourcePoint"/>
                        <mxPoint x="538.3333333333333" y="510.83333333333326" as="targetPoint"/>
                        <Array as="points"/>
                    </mxGeometry>
                </mxCell>
                <mxCell id="161" value="1" style="resizable=0;html=1;align=right;verticalAlign=bottom;fontSize=14;" connectable="0" vertex="1" parent="160">
                    <mxGeometry x="1" relative="1" as="geometry">
                        <mxPoint x="-10" y="20" as="offset"/>
                    </mxGeometry>
                </mxCell>
                <mxCell id="162" value="&lt;font style=&quot;font-size: 14px&quot;&gt;&lt;b&gt;&lt;u&gt;BoothCode&lt;/u&gt;&lt;/b&gt;&lt;/font&gt;" style="ellipse;whiteSpace=wrap;html=1;align=center;fontSize=18;" vertex="1" parent="1">
                    <mxGeometry x="75" y="900" width="115" height="40" as="geometry"/>
                </mxCell>
                <mxCell id="163" value="&lt;font style=&quot;font-size: 14px&quot;&gt;BoothCapacity&lt;/font&gt;" style="ellipse;whiteSpace=wrap;html=1;align=center;fontSize=18;" vertex="1" parent="1">
                    <mxGeometry x="190" y="880" width="100" height="40" as="geometry"/>
                </mxCell>
                <mxCell id="164" value="&lt;font style=&quot;font-size: 14px&quot;&gt;SmokingSectionIndicator&lt;/font&gt;" style="ellipse;whiteSpace=wrap;html=1;align=center;fontSize=18;" vertex="1" parent="1">
                    <mxGeometry x="300" y="830" width="180" height="40" as="geometry"/>
                </mxCell>
                <mxCell id="165" value="&lt;font style=&quot;font-size: 14px&quot;&gt;BoothTypeText&lt;/font&gt;" style="ellipse;whiteSpace=wrap;html=1;align=center;fontSize=18;" vertex="1" parent="1">
                    <mxGeometry x="-360" y="710" width="100" height="40" as="geometry"/>
                </mxCell>
                <mxCell id="166" value="" style="endArrow=none;html=1;rounded=0;fontSize=14;entryX=0;entryY=0.5;entryDx=0;entryDy=0;exitX=1;exitY=0.75;exitDx=0;exitDy=0;" edge="1" parent="1" source="106" target="164">
                    <mxGeometry relative="1" as="geometry">
                        <mxPoint x="300" y="670" as="sourcePoint"/>
                        <mxPoint x="460" y="670" as="targetPoint"/>
                    </mxGeometry>
                </mxCell>
                <mxCell id="167" value="" style="endArrow=none;html=1;rounded=0;fontSize=14;entryX=0.5;entryY=0;entryDx=0;entryDy=0;exitX=0.5;exitY=1;exitDx=0;exitDy=0;" edge="1" parent="1" source="106" target="163">
                    <mxGeometry relative="1" as="geometry">
                        <mxPoint x="300" y="670" as="sourcePoint"/>
                        <mxPoint x="460" y="670" as="targetPoint"/>
                    </mxGeometry>
                </mxCell>
                <mxCell id="168" value="" style="endArrow=none;html=1;rounded=0;fontSize=14;entryX=0.5;entryY=0;entryDx=0;entryDy=0;exitX=0.25;exitY=1;exitDx=0;exitDy=0;" edge="1" parent="1" source="106" target="162">
                    <mxGeometry relative="1" as="geometry">
                        <mxPoint x="300" y="670" as="sourcePoint"/>
                        <mxPoint x="460" y="670" as="targetPoint"/>
                    </mxGeometry>
                </mxCell>
                <mxCell id="169" value="" style="endArrow=none;html=1;rounded=0;fontSize=14;entryX=0;entryY=1;entryDx=0;entryDy=0;exitX=0.5;exitY=0;exitDx=0;exitDy=0;" edge="1" parent="1" source="207" target="201">
                    <mxGeometry relative="1" as="geometry">
                        <mxPoint x="-272.78370266391994" y="851.7042257232279" as="sourcePoint"/>
                        <mxPoint x="-120" y="850" as="targetPoint"/>
                    </mxGeometry>
                </mxCell>
                <mxCell id="170" value="" style="endArrow=none;html=1;rounded=0;fontSize=14;exitX=1;exitY=0.5;exitDx=0;exitDy=0;entryX=0;entryY=0;entryDx=0;entryDy=0;" edge="1" parent="1" source="165" target="201">
                    <mxGeometry relative="1" as="geometry">
                        <mxPoint x="230" y="670" as="sourcePoint"/>
                        <mxPoint x="-120" y="760" as="targetPoint"/>
                    </mxGeometry>
                </mxCell>
                <mxCell id="171" value="have" style="shape=rhombus;perimeter=rhombusPerimeter;whiteSpace=wrap;html=1;align=center;" vertex="1" parent="1">
                    <mxGeometry x="985" y="180" width="120" height="60" as="geometry"/>
                </mxCell>
                <mxCell id="172" value="Owner" style="whiteSpace=wrap;html=1;align=center;" vertex="1" parent="1">
                    <mxGeometry x="1175" y="190" width="100" height="40" as="geometry"/>
                </mxCell>
                <mxCell id="173" value="" style="endArrow=none;html=1;rounded=0;entryX=0;entryY=0.5;entryDx=0;entryDy=0;" edge="1" parent="1" target="171">
                    <mxGeometry relative="1" as="geometry">
                        <mxPoint x="915" y="210" as="sourcePoint"/>
                        <mxPoint x="965" y="210" as="targetPoint"/>
                        <Array as="points"/>
                    </mxGeometry>
                </mxCell>
                <mxCell id="174" value="1" style="edgeLabel;html=1;align=center;verticalAlign=middle;resizable=0;points=[];" vertex="1" connectable="0" parent="173">
                    <mxGeometry x="0.4521" y="-2" relative="1" as="geometry">
                        <mxPoint y="-12" as="offset"/>
                    </mxGeometry>
                </mxCell>
                <mxCell id="175" value="" style="endArrow=none;html=1;rounded=0;exitX=1;exitY=0.5;exitDx=0;exitDy=0;entryX=0;entryY=0.5;entryDx=0;entryDy=0;" edge="1" parent="1" source="171" target="172">
                    <mxGeometry relative="1" as="geometry">
                        <mxPoint x="935" y="360" as="sourcePoint"/>
                        <mxPoint x="1095" y="360" as="targetPoint"/>
                    </mxGeometry>
                </mxCell>
                <mxCell id="176" value="N" style="edgeLabel;html=1;align=center;verticalAlign=middle;resizable=0;points=[];" vertex="1" connectable="0" parent="175">
                    <mxGeometry x="-0.3714" y="-2" relative="1" as="geometry">
                        <mxPoint x="-12" y="-12" as="offset"/>
                    </mxGeometry>
                </mxCell>
                <mxCell id="177" value="Offer" style="shape=ext;margin=3;double=1;whiteSpace=wrap;html=1;align=center;" vertex="1" parent="1">
                    <mxGeometry x="420" y="170" width="100" height="40" as="geometry"/>
                </mxCell>
                <mxCell id="178" value="does" style="shape=rhombus;double=1;perimeter=rhombusPerimeter;whiteSpace=wrap;html=1;align=center;" vertex="1" parent="1">
                    <mxGeometry x="620" y="160" width="120" height="60" as="geometry"/>
                </mxCell>
                <mxCell id="179" value="is" style="shape=rhombus;double=1;perimeter=rhombusPerimeter;whiteSpace=wrap;html=1;align=center;" vertex="1" parent="1">
                    <mxGeometry x="210" y="160" width="120" height="60" as="geometry"/>
                </mxCell>
                <mxCell id="180" value="" style="endArrow=none;html=1;rounded=0;exitX=1;exitY=0.5;exitDx=0;exitDy=0;entryX=0;entryY=0.5;entryDx=0;entryDy=0;" edge="1" parent="1" source="179" target="177">
                    <mxGeometry relative="1" as="geometry">
                        <mxPoint x="510" y="440" as="sourcePoint"/>
                        <mxPoint x="670" y="440" as="targetPoint"/>
                    </mxGeometry>
                </mxCell>
                <mxCell id="181" value="N" style="edgeLabel;html=1;align=center;verticalAlign=middle;resizable=0;points=[];" vertex="1" connectable="0" parent="180">
                    <mxGeometry x="-0.5944" relative="1" as="geometry">
                        <mxPoint x="-1" y="-10" as="offset"/>
                    </mxGeometry>
                </mxCell>
                <mxCell id="182" value="" style="endArrow=none;html=1;rounded=0;exitX=1;exitY=0.5;exitDx=0;exitDy=0;entryX=0;entryY=0.5;entryDx=0;entryDy=0;" edge="1" parent="1" source="177" target="178">
                    <mxGeometry relative="1" as="geometry">
                        <mxPoint x="510" y="440" as="sourcePoint"/>
                        <mxPoint x="670" y="440" as="targetPoint"/>
                    </mxGeometry>
                </mxCell>
                <mxCell id="183" value="N" style="edgeLabel;html=1;align=center;verticalAlign=middle;resizable=0;points=[];" vertex="1" connectable="0" parent="182">
                    <mxGeometry x="-0.56" y="4" relative="1" as="geometry">
                        <mxPoint x="-1" as="offset"/>
                    </mxGeometry>
                </mxCell>
                <mxCell id="184" value="ownerID" style="ellipse;whiteSpace=wrap;html=1;align=center;fontStyle=4;" vertex="1" parent="1">
                    <mxGeometry x="1310" y="220" width="100" height="40" as="geometry"/>
                </mxCell>
                <mxCell id="185" value="FirstName" style="ellipse;whiteSpace=wrap;html=1;align=center;" vertex="1" parent="1">
                    <mxGeometry x="1210" y="270" width="100" height="40" as="geometry"/>
                </mxCell>
                <mxCell id="186" value="LastName" style="ellipse;whiteSpace=wrap;html=1;align=center;" vertex="1" parent="1">
                    <mxGeometry x="1210" y="110" width="100" height="40" as="geometry"/>
                </mxCell>
                <mxCell id="187" value="" style="endArrow=none;html=1;rounded=0;exitX=0.605;exitY=1.059;exitDx=0;exitDy=0;exitPerimeter=0;" edge="1" parent="1" source="172">
                    <mxGeometry relative="1" as="geometry">
                        <mxPoint x="1100" y="340" as="sourcePoint"/>
                        <mxPoint x="1250" y="280" as="targetPoint"/>
                    </mxGeometry>
                </mxCell>
                <mxCell id="188" value="" style="endArrow=none;html=1;rounded=0;exitX=0.5;exitY=1;exitDx=0;exitDy=0;entryX=0.605;entryY=-0.088;entryDx=0;entryDy=0;entryPerimeter=0;" edge="1" parent="1" source="186" target="172">
                    <mxGeometry relative="1" as="geometry">
                        <mxPoint x="1110" y="420" as="sourcePoint"/>
                        <mxPoint x="1270" y="420" as="targetPoint"/>
                    </mxGeometry>
                </mxCell>
                <mxCell id="189" value="" style="endArrow=none;html=1;rounded=0;exitX=1;exitY=0.5;exitDx=0;exitDy=0;entryX=0;entryY=0;entryDx=0;entryDy=0;" edge="1" parent="1" source="172" target="184">
                    <mxGeometry relative="1" as="geometry">
                        <mxPoint x="1310" y="190" as="sourcePoint"/>
                        <mxPoint x="1470" y="190" as="targetPoint"/>
                    </mxGeometry>
                </mxCell>
                <mxCell id="190" value="" style="endArrow=none;html=1;rounded=0;exitX=0.5;exitY=1;exitDx=0;exitDy=0;entryX=0.25;entryY=0;entryDx=0;entryDy=0;" edge="1" parent="1" source="192" target="177">
                    <mxGeometry relative="1" as="geometry">
                        <mxPoint x="445" y="130" as="sourcePoint"/>
                        <mxPoint x="570" y="310" as="targetPoint"/>
                    </mxGeometry>
                </mxCell>
                <mxCell id="191" value="" style="endArrow=none;html=1;rounded=0;exitX=0.5;exitY=1;exitDx=0;exitDy=0;" edge="1" parent="1" source="177" target="193">
                    <mxGeometry relative="1" as="geometry">
                        <mxPoint x="410" y="310" as="sourcePoint"/>
                        <mxPoint x="470" y="255" as="targetPoint"/>
                    </mxGeometry>
                </mxCell>
                <mxCell id="192" value="&lt;span style=&quot;border-bottom: 1px dotted&quot;&gt;DesertOfferedFirstDate&lt;/span&gt;" style="ellipse;whiteSpace=wrap;html=1;align=center;" vertex="1" parent="1">
                    <mxGeometry x="360" y="50" width="170" height="80" as="geometry"/>
                </mxCell>
                <mxCell id="193" value="&lt;span style=&quot;border-bottom: 1px dotted&quot;&gt;DesertOfferedLastDate&lt;/span&gt;" style="ellipse;whiteSpace=wrap;html=1;align=center;" vertex="1" parent="1">
                    <mxGeometry x="390" y="255" width="160" height="70" as="geometry"/>
                </mxCell>
                <mxCell id="194" value="isLocated" style="shape=rhombus;perimeter=rhombusPerimeter;whiteSpace=wrap;html=1;align=center;" vertex="1" parent="1">
                    <mxGeometry x="885" y="320" width="120" height="60" as="geometry"/>
                </mxCell>
                <mxCell id="195" value="" style="endArrow=none;html=1;rounded=0;exitX=0.876;exitY=1.059;exitDx=0;exitDy=0;exitPerimeter=0;entryX=0.5;entryY=0;entryDx=0;entryDy=0;" edge="1" parent="1" source="107" target="194">
                    <mxGeometry relative="1" as="geometry">
                        <mxPoint x="900" y="470" as="sourcePoint"/>
                        <mxPoint x="950" y="320" as="targetPoint"/>
                    </mxGeometry>
                </mxCell>
                <mxCell id="196" value="N" style="edgeLabel;html=1;align=center;verticalAlign=middle;resizable=0;points=[];" vertex="1" connectable="0" parent="195">
                    <mxGeometry x="0.6637" y="3" relative="1" as="geometry">
                        <mxPoint x="9" y="6" as="offset"/>
                    </mxGeometry>
                </mxCell>
                <mxCell id="197" value="Region" style="rounded=1;arcSize=10;whiteSpace=wrap;html=1;align=center;" vertex="1" parent="1">
                    <mxGeometry x="895" y="430" width="100" height="40" as="geometry"/>
                </mxCell>
                <mxCell id="198" value="RegionCode" style="ellipse;whiteSpace=wrap;html=1;align=center;fontStyle=4;" vertex="1" parent="1">
                    <mxGeometry x="1020" y="500" width="100" height="40" as="geometry"/>
                </mxCell>
                <mxCell id="199" value="" style="endArrow=none;html=1;rounded=0;exitX=0.5;exitY=0;exitDx=0;exitDy=0;entryX=0.5;entryY=1;entryDx=0;entryDy=0;" edge="1" parent="1" source="197" target="194">
                    <mxGeometry relative="1" as="geometry">
                        <mxPoint x="710" y="420" as="sourcePoint"/>
                        <mxPoint x="870" y="420" as="targetPoint"/>
                    </mxGeometry>
                </mxCell>
                <mxCell id="200" value="1" style="edgeLabel;html=1;align=center;verticalAlign=middle;resizable=0;points=[];" vertex="1" connectable="0" parent="199">
                    <mxGeometry x="0.4504" y="-2" relative="1" as="geometry">
                        <mxPoint x="12" y="-4" as="offset"/>
                    </mxGeometry>
                </mxCell>
                <mxCell id="201" value="BoothType" style="whiteSpace=wrap;html=1;align=center;" vertex="1" parent="1">
                    <mxGeometry x="-210" y="760" width="100" height="40" as="geometry"/>
                </mxCell>
                <mxCell id="202" value="have" style="shape=rhombus;perimeter=rhombusPerimeter;whiteSpace=wrap;html=1;align=center;" vertex="1" parent="1">
                    <mxGeometry x="-60" y="750" width="120" height="60" as="geometry"/>
                </mxCell>
                <mxCell id="203" value="" style="endArrow=none;html=1;rounded=0;exitX=1;exitY=0.5;exitDx=0;exitDy=0;entryX=0;entryY=0.5;entryDx=0;entryDy=0;" edge="1" parent="1" source="201" target="202">
                    <mxGeometry relative="1" as="geometry">
                        <mxPoint x="100" y="850" as="sourcePoint"/>
                        <mxPoint x="260" y="850" as="targetPoint"/>
                    </mxGeometry>
                </mxCell>
                <mxCell id="204" value="1" style="edgeLabel;html=1;align=center;verticalAlign=middle;resizable=0;points=[];" vertex="1" connectable="0" parent="203">
                    <mxGeometry x="0.4945" relative="1" as="geometry">
                        <mxPoint x="-2" y="-10" as="offset"/>
                    </mxGeometry>
                </mxCell>
                <mxCell id="205" value="" style="endArrow=none;html=1;rounded=0;exitX=1;exitY=0.5;exitDx=0;exitDy=0;entryX=0;entryY=0.75;entryDx=0;entryDy=0;" edge="1" parent="1" source="202" target="106">
                    <mxGeometry relative="1" as="geometry">
                        <mxPoint x="100" y="850" as="sourcePoint"/>
                        <mxPoint x="260" y="850" as="targetPoint"/>
                    </mxGeometry>
                </mxCell>
                <mxCell id="206" value="N" style="edgeLabel;html=1;align=center;verticalAlign=middle;resizable=0;points=[];" vertex="1" connectable="0" parent="205">
                    <mxGeometry x="-0.3606" y="-1" relative="1" as="geometry">
                        <mxPoint x="-4" y="-11" as="offset"/>
                    </mxGeometry>
                </mxCell>
                <mxCell id="207" value="BoothTypeCode" style="ellipse;whiteSpace=wrap;html=1;align=center;fontStyle=4;" vertex="1" parent="1">
                    <mxGeometry x="-330" y="840" width="100" height="40" as="geometry"/>
                </mxCell>
                <mxCell id="208" value="DesertCategory" style="whiteSpace=wrap;html=1;align=center;" vertex="1" parent="1">
                    <mxGeometry x="-190" y="350" width="100" height="40" as="geometry"/>
                </mxCell>
                <mxCell id="209" value="DesertCategoryId" style="ellipse;whiteSpace=wrap;html=1;align=center;fontStyle=4;" vertex="1" parent="1">
                    <mxGeometry x="-320" y="390" width="110" height="50" as="geometry"/>
                </mxCell>
                <mxCell id="210" value="" style="endArrow=none;html=1;rounded=0;exitX=1;exitY=0;exitDx=0;exitDy=0;entryX=0;entryY=0.75;entryDx=0;entryDy=0;" edge="1" parent="1" source="209" target="208">
                    <mxGeometry relative="1" as="geometry">
                        <mxPoint x="280" y="480" as="sourcePoint"/>
                        <mxPoint x="440" y="480" as="targetPoint"/>
                    </mxGeometry>
                </mxCell>
                <mxCell id="212" value="has" style="shape=rhombus;perimeter=rhombusPerimeter;whiteSpace=wrap;html=1;align=center;" vertex="1" parent="1">
                    <mxGeometry x="-100" y="255" width="120" height="60" as="geometry"/>
                </mxCell>
                <mxCell id="213" value="" style="endArrow=none;html=1;rounded=0;exitX=0.5;exitY=1;exitDx=0;exitDy=0;entryX=0.5;entryY=0;entryDx=0;entryDy=0;" edge="1" parent="1" source="212" target="208">
                    <mxGeometry relative="1" as="geometry">
                        <mxPoint x="280" y="480" as="sourcePoint"/>
                        <mxPoint x="440" y="480" as="targetPoint"/>
                    </mxGeometry>
                </mxCell>
                <mxCell id="215" value="1" style="edgeLabel;html=1;align=center;verticalAlign=middle;resizable=0;points=[];" vertex="1" connectable="0" parent="213">
                    <mxGeometry x="-0.4701" y="4" relative="1" as="geometry">
                        <mxPoint x="-17" y="-11" as="offset"/>
                    </mxGeometry>
                </mxCell>
                <mxCell id="214" value="" style="endArrow=none;html=1;rounded=0;exitX=1;exitY=0;exitDx=0;exitDy=0;entryX=0.25;entryY=1;entryDx=0;entryDy=0;" edge="1" parent="1" source="212" target="108">
                    <mxGeometry relative="1" as="geometry">
                        <mxPoint x="280" y="480" as="sourcePoint"/>
                        <mxPoint x="440" y="480" as="targetPoint"/>
                    </mxGeometry>
                </mxCell>
                <mxCell id="216" value="N" style="edgeLabel;html=1;align=center;verticalAlign=middle;resizable=0;points=[];" vertex="1" connectable="0" parent="214">
                    <mxGeometry x="-0.5034" y="-1" relative="1" as="geometry">
                        <mxPoint x="-17" as="offset"/>
                    </mxGeometry>
                </mxCell>
            </root>
        </mxGraphModel>
    </diagram>
</mxfile>